<svg id="Layer_2" data-name="Layer 2" xmlns="http://www.w3.org/2000/svg" viewBox="0 0 244 244">
  <defs>
    <style>
      .cls-1 {
        fill: #fff;
      }

      .cls-2 {
        fill: #272062;
      }
    </style>
  </defs>
  <g id="Layer_1-2" data-name="Layer 1">
    <g>
      <rect class="cls-2" width="244" height="244"/>
      <path class="cls-1" d="M109.6,63.7c-7.78,4.76-11.93.51-22.63,4.19-9.16,3.15-14.8,9.24-17.04,11.73-7.12,7.94-9.64,16.51-10.62,21.06-.32,31.56-.63,63.13-.95,94.69-1.37,6.67-6.36,11.89-12.58,13.18-7.63,1.59-15.85-2.99-18.87-11.08-1.02-70.12.39-90.83,1.5-97.94.08-.49.14-.91.15-.91.62-3.77,3.2-18.09,10.04-29.94,10.83-18.77,30.61-27.42,33.8-28.75,3.26-1.37,31.22-13.19,42.28-1.8,2.8,2.88,4.8,7.54,4.4,12.18-.66,7.53-7.4,12.14-9.46,13.39Z"/>
      <path class="cls-1" d="M123.95,74.06h32.65v121.91c-1.9,6.88-7.64,11.94-14.38,12.73-7.85.93-15.64-4.09-18.27-12.13v-122.51Z"/>
      <path class="cls-1" d="M199.37,151.92c-7.82.35-14.62,6.03-16.46,13.87v30.98c1.7,7.96,8.53,13.78,16.46,14.16,8.4.4,16.1-5.42,18.07-13.83v-31.3c-1.99-8.43-9.69-14.25-18.07-13.87Z"/>
      <circle class="cls-1" cx="90.71" cy="126.18" r="16.47"/>
      <circle class="cls-1" cx="200.18" cy="126.18" r="16.47"/>
    </g>
  </g>
</svg>
